<mxfile host="app.diagrams.net" modified="2021-09-10T01:39:49.114Z" agent="5.0 (Windows NT 10.0; Win64; x64) AppleWebKit/537.36 (KHTML, like Gecko) Chrome/92.0.4515.131 Safari/537.36" etag="AuBQh6zJ-cSsBYZwSZPh" version="15.1.1" type="github">
  <diagram id="kgpKYQtTHZ0yAKxKKP6v" name="Page-1">
    <mxGraphModel dx="1673" dy="896" grid="1" gridSize="10" guides="1" tooltips="1" connect="1" arrows="1" fold="1" page="1" pageScale="1" pageWidth="850" pageHeight="1100" math="0" shadow="0">
      <root>
        <mxCell id="0" />
        <mxCell id="1" parent="0" />
        <mxCell id="kSTq1fEqpQHj7kY_lpa0-28" value="" style="shape=umlLifeline;participant=umlActor;perimeter=lifelinePerimeter;whiteSpace=wrap;html=1;container=1;collapsible=0;recursiveResize=0;verticalAlign=top;spacingTop=36;outlineConnect=0;" vertex="1" parent="1">
          <mxGeometry x="70" y="80" width="20" height="730" as="geometry" />
        </mxCell>
        <mxCell id="kSTq1fEqpQHj7kY_lpa0-29" value="" style="html=1;points=[];perimeter=orthogonalPerimeter;" vertex="1" parent="kSTq1fEqpQHj7kY_lpa0-28">
          <mxGeometry x="5" y="100" width="10" height="630" as="geometry" />
        </mxCell>
        <mxCell id="kSTq1fEqpQHj7kY_lpa0-30" value="&lt;span style=&quot;color: rgb(75 , 75 , 75) ; font-family: &amp;#34;pingfang sc&amp;#34; , &amp;#34;microsoft yahei&amp;#34; , &amp;#34;helvetica neue&amp;#34; , &amp;#34;helvetica&amp;#34; , &amp;#34;arial&amp;#34; , sans-serif ; font-size: 16px ; background-color: rgb(255 , 255 , 255)&quot;&gt;AbstractAuthentication&lt;br&gt;ProcessingFilter&lt;/span&gt;" style="shape=umlLifeline;perimeter=lifelinePerimeter;whiteSpace=wrap;html=1;container=1;collapsible=0;recursiveResize=0;outlineConnect=0;strokeWidth=1;perimeterSpacing=1;size=50;" vertex="1" parent="1">
          <mxGeometry x="170" y="80" width="220" height="730" as="geometry" />
        </mxCell>
        <mxCell id="kSTq1fEqpQHj7kY_lpa0-40" value="" style="html=1;points=[];perimeter=orthogonalPerimeter;strokeWidth=1;" vertex="1" parent="kSTq1fEqpQHj7kY_lpa0-30">
          <mxGeometry x="105" y="100" width="10" height="630" as="geometry" />
        </mxCell>
        <mxCell id="kSTq1fEqpQHj7kY_lpa0-42" value="&lt;font style=&quot;font-size: 16px&quot;&gt;login&lt;/font&gt;" style="html=1;verticalAlign=bottom;endArrow=block;fontSize=18;" edge="1" parent="1" target="kSTq1fEqpQHj7kY_lpa0-30">
          <mxGeometry width="80" relative="1" as="geometry">
            <mxPoint x="85" y="219.5" as="sourcePoint" />
            <mxPoint x="165" y="219.5" as="targetPoint" />
          </mxGeometry>
        </mxCell>
        <mxCell id="kSTq1fEqpQHj7kY_lpa0-43" value="&lt;span style=&quot;color: rgb(75 , 75 , 75) ; font-family: &amp;#34;pingfang sc&amp;#34; , &amp;#34;microsoft yahei&amp;#34; , &amp;#34;helvetica neue&amp;#34; , &amp;#34;helvetica&amp;#34; , &amp;#34;arial&amp;#34; , sans-serif ; font-size: 16px ; background-color: rgb(255 , 255 , 255)&quot;&gt;UsernamePassword&lt;/span&gt;&lt;br style=&quot;color: rgb(75 , 75 , 75) ; font-family: &amp;#34;pingfang sc&amp;#34; , &amp;#34;microsoft yahei&amp;#34; , &amp;#34;helvetica neue&amp;#34; , &amp;#34;helvetica&amp;#34; , &amp;#34;arial&amp;#34; , sans-serif ; font-size: 16px&quot;&gt;&lt;span style=&quot;color: rgb(75 , 75 , 75) ; font-family: &amp;#34;pingfang sc&amp;#34; , &amp;#34;microsoft yahei&amp;#34; , &amp;#34;helvetica neue&amp;#34; , &amp;#34;helvetica&amp;#34; , &amp;#34;arial&amp;#34; , sans-serif ; font-size: 16px ; background-color: rgb(255 , 255 , 255)&quot;&gt;AuthenticationFilter&amp;nbsp;&lt;/span&gt;" style="shape=umlLifeline;perimeter=lifelinePerimeter;whiteSpace=wrap;html=1;container=1;collapsible=0;recursiveResize=0;outlineConnect=0;strokeWidth=1;perimeterSpacing=1;size=50;" vertex="1" parent="1">
          <mxGeometry x="450" y="80" width="220" height="460" as="geometry" />
        </mxCell>
        <mxCell id="kSTq1fEqpQHj7kY_lpa0-44" value="" style="html=1;points=[];perimeter=orthogonalPerimeter;strokeWidth=1;" vertex="1" parent="kSTq1fEqpQHj7kY_lpa0-43">
          <mxGeometry x="105" y="100" width="10" height="360" as="geometry" />
        </mxCell>
        <mxCell id="kSTq1fEqpQHj7kY_lpa0-45" value="&lt;span style=&quot;color: rgb(75 , 75 , 75) ; font-family: &amp;#34;pingfang sc&amp;#34; , &amp;#34;microsoft yahei&amp;#34; , &amp;#34;helvetica neue&amp;#34; , &amp;#34;helvetica&amp;#34; , &amp;#34;arial&amp;#34; , sans-serif ; font-size: 16px ; background-color: rgb(255 , 255 , 255)&quot;&gt;ProviderManager&amp;nbsp;&lt;/span&gt;" style="shape=umlLifeline;perimeter=lifelinePerimeter;whiteSpace=wrap;html=1;container=1;collapsible=0;recursiveResize=0;outlineConnect=0;strokeWidth=1;perimeterSpacing=1;size=50;" vertex="1" parent="1">
          <mxGeometry x="730" y="80" width="220" height="450" as="geometry" />
        </mxCell>
        <mxCell id="kSTq1fEqpQHj7kY_lpa0-46" value="" style="html=1;points=[];perimeter=orthogonalPerimeter;strokeWidth=1;" vertex="1" parent="kSTq1fEqpQHj7kY_lpa0-45">
          <mxGeometry x="105" y="100" width="10" height="350" as="geometry" />
        </mxCell>
        <mxCell id="kSTq1fEqpQHj7kY_lpa0-47" value="&lt;span style=&quot;color: rgb(75 , 75 , 75) ; font-family: &amp;#34;pingfang sc&amp;#34; , &amp;#34;microsoft yahei&amp;#34; , &amp;#34;helvetica neue&amp;#34; , &amp;#34;helvetica&amp;#34; , &amp;#34;arial&amp;#34; , sans-serif ; font-size: 16px ; background-color: rgb(255 , 255 , 255)&quot;&gt;DaoAuthenticationProvider&lt;/span&gt;" style="shape=umlLifeline;perimeter=lifelinePerimeter;whiteSpace=wrap;html=1;container=1;collapsible=0;recursiveResize=0;outlineConnect=0;strokeWidth=1;perimeterSpacing=1;size=50;" vertex="1" parent="1">
          <mxGeometry x="1010" y="80" width="220" height="520" as="geometry" />
        </mxCell>
        <mxCell id="kSTq1fEqpQHj7kY_lpa0-48" value="" style="html=1;points=[];perimeter=orthogonalPerimeter;strokeWidth=1;" vertex="1" parent="kSTq1fEqpQHj7kY_lpa0-47">
          <mxGeometry x="105" y="100" width="10" height="360" as="geometry" />
        </mxCell>
        <mxCell id="kSTq1fEqpQHj7kY_lpa0-49" value="&lt;span style=&quot;color: rgb(75 , 75 , 75) ; font-family: &amp;#34;pingfang sc&amp;#34; , &amp;#34;microsoft yahei&amp;#34; , &amp;#34;helvetica neue&amp;#34; , &amp;#34;helvetica&amp;#34; , &amp;#34;arial&amp;#34; , sans-serif ; font-size: 16px ; background-color: rgb(255 , 255 , 255)&quot;&gt;AbstractUserDetails&lt;/span&gt;&lt;br style=&quot;color: rgb(75 , 75 , 75) ; font-family: &amp;#34;pingfang sc&amp;#34; , &amp;#34;microsoft yahei&amp;#34; , &amp;#34;helvetica neue&amp;#34; , &amp;#34;helvetica&amp;#34; , &amp;#34;arial&amp;#34; , sans-serif ; font-size: 16px&quot;&gt;&lt;span style=&quot;color: rgb(75 , 75 , 75) ; font-family: &amp;#34;pingfang sc&amp;#34; , &amp;#34;microsoft yahei&amp;#34; , &amp;#34;helvetica neue&amp;#34; , &amp;#34;helvetica&amp;#34; , &amp;#34;arial&amp;#34; , sans-serif ; font-size: 16px ; background-color: rgb(255 , 255 , 255)&quot;&gt;AuthenticationProvider&lt;/span&gt;" style="shape=umlLifeline;perimeter=lifelinePerimeter;whiteSpace=wrap;html=1;container=1;collapsible=0;recursiveResize=0;outlineConnect=0;strokeWidth=1;perimeterSpacing=1;size=50;" vertex="1" parent="1">
          <mxGeometry x="1300" y="80" width="220" height="520" as="geometry" />
        </mxCell>
        <mxCell id="kSTq1fEqpQHj7kY_lpa0-50" value="" style="html=1;points=[];perimeter=orthogonalPerimeter;strokeWidth=1;" vertex="1" parent="kSTq1fEqpQHj7kY_lpa0-49">
          <mxGeometry x="105" y="100" width="10" height="420" as="geometry" />
        </mxCell>
        <mxCell id="kSTq1fEqpQHj7kY_lpa0-51" value="&lt;span style=&quot;color: rgb(75 , 75 , 75) ; font-family: &amp;#34;pingfang sc&amp;#34; , &amp;#34;microsoft yahei&amp;#34; , &amp;#34;helvetica neue&amp;#34; , &amp;#34;helvetica&amp;#34; , &amp;#34;arial&amp;#34; , sans-serif ; font-size: 16px ; background-color: rgb(255 , 255 , 255)&quot;&gt;UserDetailsService&amp;nbsp;&lt;/span&gt;" style="shape=umlLifeline;perimeter=lifelinePerimeter;whiteSpace=wrap;html=1;container=1;collapsible=0;recursiveResize=0;outlineConnect=0;strokeWidth=1;perimeterSpacing=1;size=50;" vertex="1" parent="1">
          <mxGeometry x="1570" y="80" width="220" height="520" as="geometry" />
        </mxCell>
        <mxCell id="kSTq1fEqpQHj7kY_lpa0-52" value="" style="html=1;points=[];perimeter=orthogonalPerimeter;strokeWidth=1;" vertex="1" parent="kSTq1fEqpQHj7kY_lpa0-51">
          <mxGeometry x="105" y="100" width="10" height="420" as="geometry" />
        </mxCell>
        <mxCell id="kSTq1fEqpQHj7kY_lpa0-53" value="&lt;font style=&quot;font-size: 16px&quot;&gt;savedRequestAware&lt;br&gt;AuthenticaitonSuccessHandler&lt;br&gt;&lt;/font&gt;" style="shape=umlLifeline;perimeter=lifelinePerimeter;whiteSpace=wrap;html=1;container=1;collapsible=0;recursiveResize=0;outlineConnect=0;strokeWidth=1;perimeterSpacing=1;size=50;" vertex="1" parent="1">
          <mxGeometry x="1850" y="80" width="220" height="690" as="geometry" />
        </mxCell>
        <mxCell id="kSTq1fEqpQHj7kY_lpa0-54" value="" style="html=1;points=[];perimeter=orthogonalPerimeter;strokeWidth=1;" vertex="1" parent="kSTq1fEqpQHj7kY_lpa0-53">
          <mxGeometry x="105" y="100" width="10" height="590" as="geometry" />
        </mxCell>
        <mxCell id="kSTq1fEqpQHj7kY_lpa0-55" value="&lt;span style=&quot;color: rgb(75 , 75 , 75) ; font-family: &amp;#34;pingfang sc&amp;#34; , &amp;#34;microsoft yahei&amp;#34; , &amp;#34;helvetica neue&amp;#34; , &amp;#34;helvetica&amp;#34; , &amp;#34;arial&amp;#34; , sans-serif ; font-size: 16px ; background-color: rgb(255 , 255 , 255)&quot;&gt;AuthorizationEndpoint&amp;nbsp;&lt;/span&gt;" style="shape=umlLifeline;perimeter=lifelinePerimeter;whiteSpace=wrap;html=1;container=1;collapsible=0;recursiveResize=0;outlineConnect=0;strokeWidth=1;perimeterSpacing=1;size=50;" vertex="1" parent="1">
          <mxGeometry x="2130" y="80" width="220" height="680" as="geometry" />
        </mxCell>
        <mxCell id="kSTq1fEqpQHj7kY_lpa0-56" value="" style="html=1;points=[];perimeter=orthogonalPerimeter;strokeWidth=1;" vertex="1" parent="kSTq1fEqpQHj7kY_lpa0-55">
          <mxGeometry x="105" y="100" width="10" height="580" as="geometry" />
        </mxCell>
        <mxCell id="kSTq1fEqpQHj7kY_lpa0-59" value="&lt;span style=&quot;color: rgb(75 , 75 , 75) ; font-family: &amp;#34;pingfang sc&amp;#34; , &amp;#34;microsoft yahei&amp;#34; , &amp;#34;helvetica neue&amp;#34; , &amp;#34;helvetica&amp;#34; , &amp;#34;arial&amp;#34; , sans-serif ; font-size: 16px ; background-color: rgb(255 , 255 , 255)&quot;&gt;DefaultOAuth2&lt;/span&gt;&lt;br style=&quot;color: rgb(75 , 75 , 75) ; font-family: &amp;#34;pingfang sc&amp;#34; , &amp;#34;microsoft yahei&amp;#34; , &amp;#34;helvetica neue&amp;#34; , &amp;#34;helvetica&amp;#34; , &amp;#34;arial&amp;#34; , sans-serif ; font-size: 16px&quot;&gt;&lt;span style=&quot;color: rgb(75 , 75 , 75) ; font-family: &amp;#34;pingfang sc&amp;#34; , &amp;#34;microsoft yahei&amp;#34; , &amp;#34;helvetica neue&amp;#34; , &amp;#34;helvetica&amp;#34; , &amp;#34;arial&amp;#34; , sans-serif ; font-size: 16px ; background-color: rgb(255 , 255 , 255)&quot;&gt;RequestFactory&amp;nbsp;&lt;/span&gt;" style="shape=umlLifeline;perimeter=lifelinePerimeter;whiteSpace=wrap;html=1;container=1;collapsible=0;recursiveResize=0;outlineConnect=0;strokeWidth=1;perimeterSpacing=1;size=50;" vertex="1" parent="1">
          <mxGeometry x="2410" y="80" width="220" height="680" as="geometry" />
        </mxCell>
        <mxCell id="kSTq1fEqpQHj7kY_lpa0-60" value="" style="html=1;points=[];perimeter=orthogonalPerimeter;strokeWidth=1;" vertex="1" parent="kSTq1fEqpQHj7kY_lpa0-59">
          <mxGeometry x="105" y="100" width="10" height="580" as="geometry" />
        </mxCell>
        <mxCell id="kSTq1fEqpQHj7kY_lpa0-61" value="&lt;span style=&quot;color: rgb(75 , 75 , 75) ; font-family: &amp;#34;pingfang sc&amp;#34; , &amp;#34;microsoft yahei&amp;#34; , &amp;#34;helvetica neue&amp;#34; , &amp;#34;helvetica&amp;#34; , &amp;#34;arial&amp;#34; , sans-serif ; font-size: 16px ; background-color: rgb(255 , 255 , 255)&quot;&gt;ClientDetailsService&lt;/span&gt;" style="shape=umlLifeline;perimeter=lifelinePerimeter;whiteSpace=wrap;html=1;container=1;collapsible=0;recursiveResize=0;outlineConnect=0;strokeWidth=1;perimeterSpacing=1;size=50;" vertex="1" parent="1">
          <mxGeometry x="2690" y="80" width="220" height="720" as="geometry" />
        </mxCell>
        <mxCell id="kSTq1fEqpQHj7kY_lpa0-62" value="" style="html=1;points=[];perimeter=orthogonalPerimeter;strokeWidth=1;" vertex="1" parent="kSTq1fEqpQHj7kY_lpa0-61">
          <mxGeometry x="105" y="100" width="10" height="590" as="geometry" />
        </mxCell>
        <mxCell id="kSTq1fEqpQHj7kY_lpa0-65" value="&#xa;&#xa;&lt;span style=&quot;color: rgb(75, 75, 75); font-family: &amp;quot;pingfang sc&amp;quot;, &amp;quot;microsoft yahei&amp;quot;, &amp;quot;helvetica neue&amp;quot;, helvetica, arial, sans-serif; font-size: 16px; font-style: normal; font-weight: 400; letter-spacing: normal; text-align: center; text-indent: 0px; text-transform: none; word-spacing: 0px; background-color: rgb(255, 255, 255); display: inline; float: none;&quot;&gt;BasicAuthenticationFilter&lt;/span&gt;&#xa;&#xa;" style="shape=umlLifeline;perimeter=lifelinePerimeter;whiteSpace=wrap;html=1;container=1;collapsible=0;recursiveResize=0;outlineConnect=0;strokeWidth=1;perimeterSpacing=1;size=50;" vertex="1" parent="1">
          <mxGeometry x="2975" y="80" width="220" height="670" as="geometry" />
        </mxCell>
        <mxCell id="kSTq1fEqpQHj7kY_lpa0-66" value="" style="html=1;points=[];perimeter=orthogonalPerimeter;strokeWidth=1;" vertex="1" parent="kSTq1fEqpQHj7kY_lpa0-65">
          <mxGeometry x="105" y="100" width="10" height="570" as="geometry" />
        </mxCell>
        <mxCell id="kSTq1fEqpQHj7kY_lpa0-67" value="&#xa;&#xa;&lt;span style=&quot;color: rgb(75, 75, 75); font-family: &amp;quot;pingfang sc&amp;quot;, &amp;quot;microsoft yahei&amp;quot;, &amp;quot;helvetica neue&amp;quot;, helvetica, arial, sans-serif; font-size: 16px; font-style: normal; font-weight: 400; letter-spacing: normal; text-align: center; text-indent: 0px; text-transform: none; word-spacing: 0px; background-color: rgb(255, 255, 255); display: inline; float: none;&quot;&gt;TokenEndPoint&lt;/span&gt;&#xa;&#xa;" style="shape=umlLifeline;perimeter=lifelinePerimeter;whiteSpace=wrap;html=1;container=1;collapsible=0;recursiveResize=0;outlineConnect=0;strokeWidth=1;perimeterSpacing=1;size=50;" vertex="1" parent="1">
          <mxGeometry x="3260" y="80" width="220" height="670" as="geometry" />
        </mxCell>
        <mxCell id="kSTq1fEqpQHj7kY_lpa0-68" value="" style="html=1;points=[];perimeter=orthogonalPerimeter;strokeWidth=1;" vertex="1" parent="kSTq1fEqpQHj7kY_lpa0-67">
          <mxGeometry x="105" y="100" width="10" height="570" as="geometry" />
        </mxCell>
        <mxCell id="kSTq1fEqpQHj7kY_lpa0-69" value="&#xa;&#xa;&lt;span style=&quot;color: rgb(75, 75, 75); font-family: &amp;quot;pingfang sc&amp;quot;, &amp;quot;microsoft yahei&amp;quot;, &amp;quot;helvetica neue&amp;quot;, helvetica, arial, sans-serif; font-size: 16px; font-style: normal; font-weight: 400; letter-spacing: normal; text-align: center; text-indent: 0px; text-transform: none; word-spacing: 0px; background-color: rgb(255, 255, 255); display: inline; float: none;&quot;&gt;AbstractTokenGranter&amp;nbsp;&lt;/span&gt;&#xa;&#xa;" style="shape=umlLifeline;perimeter=lifelinePerimeter;whiteSpace=wrap;html=1;container=1;collapsible=0;recursiveResize=0;outlineConnect=0;strokeWidth=1;perimeterSpacing=1;size=50;" vertex="1" parent="1">
          <mxGeometry x="3540" y="80" width="220" height="670" as="geometry" />
        </mxCell>
        <mxCell id="kSTq1fEqpQHj7kY_lpa0-70" value="" style="html=1;points=[];perimeter=orthogonalPerimeter;strokeWidth=1;" vertex="1" parent="kSTq1fEqpQHj7kY_lpa0-69">
          <mxGeometry x="105" y="100" width="10" height="570" as="geometry" />
        </mxCell>
        <mxCell id="kSTq1fEqpQHj7kY_lpa0-72" value="&#xa;&#xa;&lt;span style=&quot;color: rgb(75, 75, 75); font-family: &amp;quot;pingfang sc&amp;quot;, &amp;quot;microsoft yahei&amp;quot;, &amp;quot;helvetica neue&amp;quot;, helvetica, arial, sans-serif; font-size: 16px; font-style: normal; font-weight: 400; letter-spacing: normal; text-align: center; text-indent: 0px; text-transform: none; word-spacing: 0px; background-color: rgb(255, 255, 255); display: inline; float: none;&quot;&gt;DefaultTokenServices&amp;nbsp;&lt;/span&gt;&#xa;&#xa;" style="shape=umlLifeline;perimeter=lifelinePerimeter;whiteSpace=wrap;html=1;container=1;collapsible=0;recursiveResize=0;outlineConnect=0;strokeWidth=1;perimeterSpacing=1;size=50;" vertex="1" parent="1">
          <mxGeometry x="3820" y="80" width="220" height="680" as="geometry" />
        </mxCell>
        <mxCell id="kSTq1fEqpQHj7kY_lpa0-73" value="" style="html=1;points=[];perimeter=orthogonalPerimeter;strokeWidth=1;" vertex="1" parent="kSTq1fEqpQHj7kY_lpa0-72">
          <mxGeometry x="105" y="100" width="10" height="580" as="geometry" />
        </mxCell>
        <mxCell id="kSTq1fEqpQHj7kY_lpa0-74" value="&#xa;&#xa;&lt;span style=&quot;color: rgb(75, 75, 75); font-family: &amp;quot;pingfang sc&amp;quot;, &amp;quot;microsoft yahei&amp;quot;, &amp;quot;helvetica neue&amp;quot;, helvetica, arial, sans-serif; font-size: 16px; font-style: normal; font-weight: 400; letter-spacing: normal; text-align: center; text-indent: 0px; text-transform: none; word-spacing: 0px; background-color: rgb(255, 255, 255); display: inline; float: none;&quot;&gt;OAuth2Authentication&lt;/span&gt;&lt;br style=&quot;color: rgb(75, 75, 75); font-family: &amp;quot;pingfang sc&amp;quot;, &amp;quot;microsoft yahei&amp;quot;, &amp;quot;helvetica neue&amp;quot;, helvetica, arial, sans-serif; font-size: 16px; font-style: normal; font-weight: 400; letter-spacing: normal; text-align: center; text-indent: 0px; text-transform: none; word-spacing: 0px;&quot;&gt;&lt;span style=&quot;color: rgb(75, 75, 75); font-family: &amp;quot;pingfang sc&amp;quot;, &amp;quot;microsoft yahei&amp;quot;, &amp;quot;helvetica neue&amp;quot;, helvetica, arial, sans-serif; font-size: 16px; font-style: normal; font-weight: 400; letter-spacing: normal; text-align: center; text-indent: 0px; text-transform: none; word-spacing: 0px; background-color: rgb(255, 255, 255); display: inline; float: none;&quot;&gt;ProcessingFilter&lt;/span&gt;&#xa;&#xa;" style="shape=umlLifeline;perimeter=lifelinePerimeter;whiteSpace=wrap;html=1;container=1;collapsible=0;recursiveResize=0;outlineConnect=0;strokeWidth=1;perimeterSpacing=1;size=50;" vertex="1" parent="1">
          <mxGeometry x="4100" y="80" width="220" height="670" as="geometry" />
        </mxCell>
        <mxCell id="kSTq1fEqpQHj7kY_lpa0-75" value="" style="html=1;points=[];perimeter=orthogonalPerimeter;strokeWidth=1;" vertex="1" parent="kSTq1fEqpQHj7kY_lpa0-74">
          <mxGeometry x="105" y="100" width="10" height="570" as="geometry" />
        </mxCell>
        <mxCell id="kSTq1fEqpQHj7kY_lpa0-76" value="&lt;span style=&quot;color: rgb(75 , 75 , 75) ; font-family: &amp;#34;pingfang sc&amp;#34; , &amp;#34;microsoft yahei&amp;#34; , &amp;#34;helvetica neue&amp;#34; , &amp;#34;helvetica&amp;#34; , &amp;#34;arial&amp;#34; , sans-serif ; font-size: 16px ; background-color: rgb(255 , 255 , 255)&quot;&gt;OAuth2Authentication&lt;/span&gt;&lt;br style=&quot;color: rgb(75 , 75 , 75) ; font-family: &amp;#34;pingfang sc&amp;#34; , &amp;#34;microsoft yahei&amp;#34; , &amp;#34;helvetica neue&amp;#34; , &amp;#34;helvetica&amp;#34; , &amp;#34;arial&amp;#34; , sans-serif ; font-size: 16px&quot;&gt;&lt;span style=&quot;color: rgb(75 , 75 , 75) ; font-family: &amp;#34;pingfang sc&amp;#34; , &amp;#34;microsoft yahei&amp;#34; , &amp;#34;helvetica neue&amp;#34; , &amp;#34;helvetica&amp;#34; , &amp;#34;arial&amp;#34; , sans-serif ; font-size: 16px ; background-color: rgb(255 , 255 , 255)&quot;&gt;Manager&amp;nbsp;&lt;/span&gt;&lt;font color=&quot;#4b4b4b&quot; face=&quot;pingfang sc, microsoft yahei, helvetica neue, helvetica, arial, sans-serif&quot;&gt;&lt;span style=&quot;font-size: 16px ; background-color: rgb(255 , 255 , 255)&quot;&gt;&lt;br&gt;&lt;/span&gt;&lt;/font&gt;" style="shape=umlLifeline;perimeter=lifelinePerimeter;whiteSpace=wrap;html=1;container=1;collapsible=0;recursiveResize=0;outlineConnect=0;strokeWidth=1;perimeterSpacing=1;size=50;" vertex="1" parent="1">
          <mxGeometry x="4370" y="80" width="220" height="680" as="geometry" />
        </mxCell>
        <mxCell id="kSTq1fEqpQHj7kY_lpa0-77" value="" style="html=1;points=[];perimeter=orthogonalPerimeter;strokeWidth=1;" vertex="1" parent="kSTq1fEqpQHj7kY_lpa0-76">
          <mxGeometry x="105" y="100" width="10" height="580" as="geometry" />
        </mxCell>
        <mxCell id="kSTq1fEqpQHj7kY_lpa0-84" value="&amp;nbsp;doFilter" style="edgeStyle=orthogonalEdgeStyle;html=1;align=left;spacingLeft=2;endArrow=block;rounded=0;entryX=1;entryY=0;fontSize=15;" edge="1" parent="1">
          <mxGeometry x="0.0667" relative="1" as="geometry">
            <mxPoint x="280" y="160" as="sourcePoint" />
            <Array as="points">
              <mxPoint x="310" y="160" />
            </Array>
            <mxPoint x="285" y="180" as="targetPoint" />
            <mxPoint as="offset" />
          </mxGeometry>
        </mxCell>
        <mxCell id="kSTq1fEqpQHj7kY_lpa0-93" value="&lt;font style=&quot;font-size: 16px&quot;&gt;attempAuthentication&lt;/font&gt;" style="html=1;verticalAlign=bottom;endArrow=block;fontSize=18;" edge="1" parent="1">
          <mxGeometry width="80" relative="1" as="geometry">
            <mxPoint x="290" y="220" as="sourcePoint" />
            <mxPoint x="560" y="220" as="targetPoint" />
          </mxGeometry>
        </mxCell>
        <mxCell id="kSTq1fEqpQHj7kY_lpa0-99" value="&lt;span style=&quot;color: rgb(75 , 75 , 75) ; font-family: &amp;#34;pingfang sc&amp;#34; , &amp;#34;microsoft yahei&amp;#34; , &amp;#34;helvetica neue&amp;#34; , &amp;#34;helvetica&amp;#34; , &amp;#34;arial&amp;#34; , sans-serif ; font-size: 16px&quot;&gt;authenticate&amp;nbsp;&lt;/span&gt;" style="html=1;verticalAlign=bottom;endArrow=block;fontSize=18;" edge="1" parent="1">
          <mxGeometry width="80" relative="1" as="geometry">
            <mxPoint x="570" y="220" as="sourcePoint" />
            <mxPoint x="840" y="220" as="targetPoint" />
          </mxGeometry>
        </mxCell>
        <mxCell id="kSTq1fEqpQHj7kY_lpa0-106" value="&lt;span style=&quot;color: rgb(75 , 75 , 75) ; font-family: &amp;#34;pingfang sc&amp;#34; , &amp;#34;microsoft yahei&amp;#34; , &amp;#34;helvetica neue&amp;#34; , &amp;#34;helvetica&amp;#34; , &amp;#34;arial&amp;#34; , sans-serif ; font-size: 16px&quot;&gt;authenticate&amp;nbsp;&lt;/span&gt;" style="html=1;verticalAlign=bottom;endArrow=block;fontSize=18;" edge="1" parent="1">
          <mxGeometry width="80" relative="1" as="geometry">
            <mxPoint x="850" y="220" as="sourcePoint" />
            <mxPoint x="1120" y="220" as="targetPoint" />
          </mxGeometry>
        </mxCell>
        <mxCell id="kSTq1fEqpQHj7kY_lpa0-107" value="&lt;span style=&quot;color: rgb(75 , 75 , 75) ; font-family: &amp;#34;pingfang sc&amp;#34; , &amp;#34;microsoft yahei&amp;#34; , &amp;#34;helvetica neue&amp;#34; , &amp;#34;helvetica&amp;#34; , &amp;#34;arial&amp;#34; , sans-serif ; font-size: 16px&quot;&gt;authenticate&amp;nbsp;&lt;/span&gt;" style="html=1;verticalAlign=bottom;endArrow=block;fontSize=18;" edge="1" parent="1">
          <mxGeometry width="80" relative="1" as="geometry">
            <mxPoint x="1130" y="220" as="sourcePoint" />
            <mxPoint x="1400" y="220" as="targetPoint" />
          </mxGeometry>
        </mxCell>
        <mxCell id="kSTq1fEqpQHj7kY_lpa0-110" value="retriveUser" style="html=1;verticalAlign=bottom;endArrow=open;dashed=1;endSize=8;fontSize=16;" edge="1" parent="1" source="kSTq1fEqpQHj7kY_lpa0-49">
          <mxGeometry relative="1" as="geometry">
            <mxPoint x="1220" y="260" as="sourcePoint" />
            <mxPoint x="1130" y="260" as="targetPoint" />
          </mxGeometry>
        </mxCell>
        <mxCell id="kSTq1fEqpQHj7kY_lpa0-112" value="loadUserByUsername" style="html=1;verticalAlign=bottom;endArrow=block;fontSize=16;" edge="1" parent="1" target="kSTq1fEqpQHj7kY_lpa0-51">
          <mxGeometry width="80" relative="1" as="geometry">
            <mxPoint x="1120" y="320" as="sourcePoint" />
            <mxPoint x="1200" y="320" as="targetPoint" />
          </mxGeometry>
        </mxCell>
        <mxCell id="kSTq1fEqpQHj7kY_lpa0-123" value="addtionalAuthenticationChecks" style="html=1;verticalAlign=bottom;endArrow=open;dashed=1;endSize=8;fontSize=16;" edge="1" parent="1">
          <mxGeometry relative="1" as="geometry">
            <mxPoint x="1670" y="390" as="sourcePoint" />
            <mxPoint x="1130" y="390" as="targetPoint" />
          </mxGeometry>
        </mxCell>
        <mxCell id="kSTq1fEqpQHj7kY_lpa0-128" value="createSuccessAuthentication" style="html=1;verticalAlign=bottom;endArrow=block;fontSize=16;" edge="1" parent="1">
          <mxGeometry width="80" relative="1" as="geometry">
            <mxPoint x="1130" y="480" as="sourcePoint" />
            <mxPoint x="1400" y="480" as="targetPoint" />
          </mxGeometry>
        </mxCell>
        <mxCell id="kSTq1fEqpQHj7kY_lpa0-130" value="sucessfulAuthentication" style="html=1;verticalAlign=bottom;endArrow=open;dashed=1;endSize=8;fontSize=16;" edge="1" parent="1" target="kSTq1fEqpQHj7kY_lpa0-30">
          <mxGeometry relative="1" as="geometry">
            <mxPoint x="1400" y="560" as="sourcePoint" />
            <mxPoint x="1320" y="560" as="targetPoint" />
          </mxGeometry>
        </mxCell>
        <mxCell id="kSTq1fEqpQHj7kY_lpa0-153" value="&lt;span style=&quot;font-size: 16px&quot;&gt;onAuthenticationSuccess&lt;/span&gt;" style="html=1;verticalAlign=bottom;endArrow=block;fontSize=18;" edge="1" parent="1" target="kSTq1fEqpQHj7kY_lpa0-53">
          <mxGeometry x="-0.0354" y="10" width="80" relative="1" as="geometry">
            <mxPoint x="280" y="760" as="sourcePoint" />
            <mxPoint x="550" y="760" as="targetPoint" />
            <mxPoint x="-1" as="offset" />
          </mxGeometry>
        </mxCell>
        <mxCell id="kSTq1fEqpQHj7kY_lpa0-183" value="dispatch" style="html=1;verticalAlign=bottom;endArrow=block;fontSize=16;" edge="1" parent="1">
          <mxGeometry x="-0.4074" y="-960" width="80" relative="1" as="geometry">
            <mxPoint x="1960" y="460" as="sourcePoint" />
            <mxPoint x="2230" y="460" as="targetPoint" />
            <mxPoint as="offset" />
          </mxGeometry>
        </mxCell>
        <mxCell id="kSTq1fEqpQHj7kY_lpa0-188" value="&lt;span style=&quot;color: rgb(75 , 75 , 75) ; font-family: &amp;#34;pingfang sc&amp;#34; , &amp;#34;microsoft yahei&amp;#34; , &amp;#34;helvetica neue&amp;#34; , &amp;#34;helvetica&amp;#34; , &amp;#34;arial&amp;#34; , sans-serif ; background-color: rgb(255 , 255 , 255)&quot;&gt;authorize&lt;/span&gt;" style="text;html=1;align=center;verticalAlign=middle;resizable=0;points=[];autosize=1;strokeColor=none;fillColor=none;fontSize=16;" vertex="1" parent="1">
          <mxGeometry x="2060" y="430" width="90" height="30" as="geometry" />
        </mxCell>
        <mxCell id="kSTq1fEqpQHj7kY_lpa0-189" value="dispatch" style="html=1;verticalAlign=bottom;endArrow=block;fontSize=16;" edge="1" parent="1">
          <mxGeometry x="-0.4074" y="-960" width="80" relative="1" as="geometry">
            <mxPoint x="2240" y="460" as="sourcePoint" />
            <mxPoint x="2510" y="460" as="targetPoint" />
            <mxPoint as="offset" />
          </mxGeometry>
        </mxCell>
        <mxCell id="kSTq1fEqpQHj7kY_lpa0-190" value="&lt;span style=&quot;color: rgb(75 , 75 , 75) ; font-family: &amp;#34;pingfang sc&amp;#34; , &amp;#34;microsoft yahei&amp;#34; , &amp;#34;helvetica neue&amp;#34; , &amp;#34;helvetica&amp;#34; , &amp;#34;arial&amp;#34; , sans-serif ; background-color: rgb(255 , 255 , 255)&quot;&gt;createAuthorizationRequest&amp;nbsp;&lt;/span&gt;" style="text;html=1;align=center;verticalAlign=middle;resizable=0;points=[];autosize=1;strokeColor=none;fillColor=none;fontSize=16;" vertex="1" parent="1">
          <mxGeometry x="2270" y="430" width="230" height="30" as="geometry" />
        </mxCell>
        <mxCell id="kSTq1fEqpQHj7kY_lpa0-191" value="&lt;span style=&quot;color: rgb(75 , 75 , 75) ; font-family: &amp;#34;pingfang sc&amp;#34; , &amp;#34;microsoft yahei&amp;#34; , &amp;#34;helvetica neue&amp;#34; , &amp;#34;helvetica&amp;#34; , &amp;#34;arial&amp;#34; , sans-serif ; background-color: rgb(255 , 255 , 255)&quot;&gt;createAuthorizationRequest&amp;nbsp;&lt;/span&gt;" style="text;html=1;align=center;verticalAlign=middle;resizable=0;points=[];autosize=1;strokeColor=none;fillColor=none;fontSize=16;" vertex="1" parent="1">
          <mxGeometry x="2540" y="430" width="230" height="30" as="geometry" />
        </mxCell>
        <mxCell id="kSTq1fEqpQHj7kY_lpa0-193" value="dispatch" style="html=1;verticalAlign=bottom;endArrow=block;fontSize=16;" edge="1" parent="1">
          <mxGeometry x="-0.4074" y="-960" width="80" relative="1" as="geometry">
            <mxPoint x="2530" y="460" as="sourcePoint" />
            <mxPoint x="2800" y="460" as="targetPoint" />
            <mxPoint as="offset" />
          </mxGeometry>
        </mxCell>
        <mxCell id="kSTq1fEqpQHj7kY_lpa0-194" value="dispatch" style="html=1;verticalAlign=bottom;endArrow=block;fontSize=16;" edge="1" parent="1">
          <mxGeometry x="-0.4074" y="-960" width="80" relative="1" as="geometry">
            <mxPoint x="2810" y="460" as="sourcePoint" />
            <mxPoint x="3080" y="460" as="targetPoint" />
            <mxPoint as="offset" />
          </mxGeometry>
        </mxCell>
        <mxCell id="kSTq1fEqpQHj7kY_lpa0-195" value="&lt;font color=&quot;#4b4b4b&quot; face=&quot;pingfang sc, microsoft yahei, helvetica neue, helvetica, arial, sans-serif&quot;&gt;&lt;span style=&quot;background-color: rgb(255 , 255 , 255)&quot;&gt;doFilterInternal&lt;/span&gt;&lt;/font&gt;" style="text;html=1;align=center;verticalAlign=middle;resizable=0;points=[];autosize=1;strokeColor=none;fillColor=none;fontSize=16;" vertex="1" parent="1">
          <mxGeometry x="2870" y="425" width="130" height="30" as="geometry" />
        </mxCell>
        <mxCell id="kSTq1fEqpQHj7kY_lpa0-197" value="dispatch" style="html=1;verticalAlign=bottom;endArrow=block;fontSize=16;" edge="1" parent="1">
          <mxGeometry x="-0.4074" y="-960" width="80" relative="1" as="geometry">
            <mxPoint x="3090" y="460" as="sourcePoint" />
            <mxPoint x="3360" y="460" as="targetPoint" />
            <mxPoint as="offset" />
          </mxGeometry>
        </mxCell>
        <mxCell id="kSTq1fEqpQHj7kY_lpa0-198" value="&lt;font color=&quot;#4b4b4b&quot; face=&quot;pingfang sc, microsoft yahei, helvetica neue, helvetica, arial, sans-serif&quot;&gt;&lt;span style=&quot;background-color: rgb(255 , 255 , 255)&quot;&gt;postAccessToken&lt;/span&gt;&lt;/font&gt;" style="text;html=1;align=center;verticalAlign=middle;resizable=0;points=[];autosize=1;strokeColor=none;fillColor=none;fontSize=16;" vertex="1" parent="1">
          <mxGeometry x="3160" y="425" width="150" height="30" as="geometry" />
        </mxCell>
        <mxCell id="kSTq1fEqpQHj7kY_lpa0-199" value="dispatch" style="html=1;verticalAlign=bottom;endArrow=block;fontSize=16;" edge="1" parent="1">
          <mxGeometry x="-0.4074" y="-960" width="80" relative="1" as="geometry">
            <mxPoint x="3370" y="460" as="sourcePoint" />
            <mxPoint x="3640" y="460" as="targetPoint" />
            <mxPoint as="offset" />
          </mxGeometry>
        </mxCell>
        <mxCell id="kSTq1fEqpQHj7kY_lpa0-200" value="&lt;font color=&quot;#4b4b4b&quot; face=&quot;pingfang sc, microsoft yahei, helvetica neue, helvetica, arial, sans-serif&quot;&gt;&lt;span style=&quot;background-color: rgb(255 , 255 , 255)&quot;&gt;grant&lt;/span&gt;&lt;/font&gt;" style="text;html=1;align=center;verticalAlign=middle;resizable=0;points=[];autosize=1;strokeColor=none;fillColor=none;fontSize=16;" vertex="1" parent="1">
          <mxGeometry x="3475" y="425" width="60" height="30" as="geometry" />
        </mxCell>
        <mxCell id="kSTq1fEqpQHj7kY_lpa0-201" value="dispatch" style="html=1;verticalAlign=bottom;endArrow=block;fontSize=16;" edge="1" parent="1">
          <mxGeometry x="-0.4074" y="-960" width="80" relative="1" as="geometry">
            <mxPoint x="3650" y="460" as="sourcePoint" />
            <mxPoint x="3920" y="460" as="targetPoint" />
            <mxPoint as="offset" />
          </mxGeometry>
        </mxCell>
        <mxCell id="kSTq1fEqpQHj7kY_lpa0-202" value="&lt;font color=&quot;#4b4b4b&quot; face=&quot;pingfang sc, microsoft yahei, helvetica neue, helvetica, arial, sans-serif&quot;&gt;&lt;span style=&quot;background-color: rgb(255 , 255 , 255)&quot;&gt;createAccessToken&lt;/span&gt;&lt;/font&gt;" style="text;html=1;align=center;verticalAlign=middle;resizable=0;points=[];autosize=1;strokeColor=none;fillColor=none;fontSize=16;" vertex="1" parent="1">
          <mxGeometry x="3710" y="430" width="160" height="30" as="geometry" />
        </mxCell>
        <mxCell id="kSTq1fEqpQHj7kY_lpa0-203" value="&lt;font color=&quot;#4b4b4b&quot; face=&quot;pingfang sc, microsoft yahei, helvetica neue, helvetica, arial, sans-serif&quot;&gt;&lt;span style=&quot;background-color: rgb(255 , 255 , 255)&quot;&gt;doFilter&lt;/span&gt;&lt;/font&gt;" style="text;html=1;align=center;verticalAlign=middle;resizable=0;points=[];autosize=1;strokeColor=none;fillColor=none;fontSize=16;" vertex="1" parent="1">
          <mxGeometry x="4045" y="425" width="70" height="30" as="geometry" />
        </mxCell>
        <mxCell id="kSTq1fEqpQHj7kY_lpa0-204" value="dispatch" style="html=1;verticalAlign=bottom;endArrow=block;fontSize=16;" edge="1" parent="1">
          <mxGeometry x="-0.4074" y="-960" width="80" relative="1" as="geometry">
            <mxPoint x="4220" y="460" as="sourcePoint" />
            <mxPoint x="4490" y="460" as="targetPoint" />
            <mxPoint as="offset" />
          </mxGeometry>
        </mxCell>
        <mxCell id="kSTq1fEqpQHj7kY_lpa0-206" value="dispatch" style="html=1;verticalAlign=bottom;endArrow=block;fontSize=16;" edge="1" parent="1">
          <mxGeometry x="-0.4074" y="-960" width="80" relative="1" as="geometry">
            <mxPoint x="3940" y="458.82" as="sourcePoint" />
            <mxPoint x="4210" y="458.82" as="targetPoint" />
            <mxPoint as="offset" />
          </mxGeometry>
        </mxCell>
        <mxCell id="kSTq1fEqpQHj7kY_lpa0-207" value="&lt;font color=&quot;#4b4b4b&quot; face=&quot;pingfang sc, microsoft yahei, helvetica neue, helvetica, arial, sans-serif&quot;&gt;&lt;span style=&quot;background-color: rgb(255 , 255 , 255)&quot;&gt;authenticate&lt;/span&gt;&lt;/font&gt;" style="text;html=1;align=center;verticalAlign=middle;resizable=0;points=[];autosize=1;strokeColor=none;fillColor=none;fontSize=16;" vertex="1" parent="1">
          <mxGeometry x="4300" y="425" width="110" height="30" as="geometry" />
        </mxCell>
      </root>
    </mxGraphModel>
  </diagram>
</mxfile>
